<mxfile host="app.diagrams.net" modified="2020-10-03T00:23:12.009Z" agent="5.0 (Windows NT 10.0; Win64; x64) AppleWebKit/537.36 (KHTML, like Gecko) Chrome/85.0.4183.121 Safari/537.36" etag="oowqcxqPFBbcstvTj0hA" version="13.7.7" type="github">
  <diagram id="O0lDRIMXAkrLMIfufN-n" name="Page-1">
    <mxGraphModel dx="981" dy="548" grid="1" gridSize="10" guides="1" tooltips="1" connect="1" arrows="1" fold="1" page="1" pageScale="1" pageWidth="850" pageHeight="1100" math="0" shadow="0">
      <root>
        <mxCell id="0" />
        <mxCell id="1" parent="0" />
        <mxCell id="FinC79XKJ0Y0x9X4pj8Z-4" style="edgeStyle=orthogonalEdgeStyle;rounded=0;orthogonalLoop=1;jettySize=auto;html=1;entryX=0.5;entryY=0;entryDx=0;entryDy=0;" edge="1" parent="1" source="FinC79XKJ0Y0x9X4pj8Z-1" target="FinC79XKJ0Y0x9X4pj8Z-2">
          <mxGeometry relative="1" as="geometry" />
        </mxCell>
        <mxCell id="FinC79XKJ0Y0x9X4pj8Z-1" value="array" style="rounded=0;whiteSpace=wrap;html=1;" vertex="1" parent="1">
          <mxGeometry x="150" y="140" width="120" height="60" as="geometry" />
        </mxCell>
        <mxCell id="FinC79XKJ0Y0x9X4pj8Z-12" style="edgeStyle=orthogonalEdgeStyle;rounded=0;orthogonalLoop=1;jettySize=auto;html=1;exitX=0.5;exitY=1;exitDx=0;exitDy=0;entryX=0.5;entryY=0;entryDx=0;entryDy=0;" edge="1" parent="1" source="FinC79XKJ0Y0x9X4pj8Z-2" target="FinC79XKJ0Y0x9X4pj8Z-5">
          <mxGeometry relative="1" as="geometry" />
        </mxCell>
        <mxCell id="FinC79XKJ0Y0x9X4pj8Z-2" value="sorted array" style="rounded=0;whiteSpace=wrap;html=1;" vertex="1" parent="1">
          <mxGeometry x="150" y="280" width="120" height="60" as="geometry" />
        </mxCell>
        <mxCell id="FinC79XKJ0Y0x9X4pj8Z-11" style="edgeStyle=orthogonalEdgeStyle;rounded=0;orthogonalLoop=1;jettySize=auto;html=1;entryX=0.5;entryY=0;entryDx=0;entryDy=0;" edge="1" parent="1" source="FinC79XKJ0Y0x9X4pj8Z-5" target="FinC79XKJ0Y0x9X4pj8Z-7">
          <mxGeometry relative="1" as="geometry" />
        </mxCell>
        <mxCell id="FinC79XKJ0Y0x9X4pj8Z-5" value="start&lt;br&gt;range(0 - array.length" style="rounded=1;whiteSpace=wrap;html=1;" vertex="1" parent="1">
          <mxGeometry x="150" y="400" width="120" height="60" as="geometry" />
        </mxCell>
        <mxCell id="FinC79XKJ0Y0x9X4pj8Z-6" value="end" style="rounded=1;whiteSpace=wrap;html=1;" vertex="1" parent="1">
          <mxGeometry x="230" y="970" width="120" height="60" as="geometry" />
        </mxCell>
        <mxCell id="FinC79XKJ0Y0x9X4pj8Z-14" style="edgeStyle=orthogonalEdgeStyle;rounded=0;orthogonalLoop=1;jettySize=auto;html=1;entryX=0;entryY=0.5;entryDx=0;entryDy=0;" edge="1" parent="1" source="FinC79XKJ0Y0x9X4pj8Z-7" target="FinC79XKJ0Y0x9X4pj8Z-16">
          <mxGeometry relative="1" as="geometry" />
        </mxCell>
        <mxCell id="FinC79XKJ0Y0x9X4pj8Z-15" value="Yes: i parameter&amp;nbsp;" style="edgeLabel;html=1;align=center;verticalAlign=middle;resizable=0;points=[];" vertex="1" connectable="0" parent="FinC79XKJ0Y0x9X4pj8Z-14">
          <mxGeometry x="-0.356" y="-2" relative="1" as="geometry">
            <mxPoint as="offset" />
          </mxGeometry>
        </mxCell>
        <mxCell id="FinC79XKJ0Y0x9X4pj8Z-7" value="if i == 0 or&lt;br&gt;array[i] &amp;lt;&amp;gt; array[i+1]" style="rhombus;whiteSpace=wrap;html=1;" vertex="1" parent="1">
          <mxGeometry x="60" y="530" width="150" height="150" as="geometry" />
        </mxCell>
        <mxCell id="FinC79XKJ0Y0x9X4pj8Z-13" value="find match of 3 sums" style="rounded=0;whiteSpace=wrap;html=1;" vertex="1" parent="1">
          <mxGeometry x="550" y="460" width="120" height="60" as="geometry" />
        </mxCell>
        <mxCell id="FinC79XKJ0Y0x9X4pj8Z-21" style="edgeStyle=orthogonalEdgeStyle;rounded=0;orthogonalLoop=1;jettySize=auto;html=1;entryX=0.46;entryY=-0.018;entryDx=0;entryDy=0;entryPerimeter=0;" edge="1" parent="1" source="FinC79XKJ0Y0x9X4pj8Z-16" target="FinC79XKJ0Y0x9X4pj8Z-6">
          <mxGeometry relative="1" as="geometry" />
        </mxCell>
        <mxCell id="FinC79XKJ0Y0x9X4pj8Z-22" value="yes" style="edgeLabel;html=1;align=center;verticalAlign=middle;resizable=0;points=[];" vertex="1" connectable="0" parent="FinC79XKJ0Y0x9X4pj8Z-21">
          <mxGeometry x="-0.177" y="-20" relative="1" as="geometry">
            <mxPoint x="-18" y="27" as="offset" />
          </mxGeometry>
        </mxCell>
        <mxCell id="FinC79XKJ0Y0x9X4pj8Z-24" style="edgeStyle=orthogonalEdgeStyle;rounded=0;orthogonalLoop=1;jettySize=auto;html=1;" edge="1" parent="1" source="FinC79XKJ0Y0x9X4pj8Z-16" target="FinC79XKJ0Y0x9X4pj8Z-13">
          <mxGeometry relative="1" as="geometry" />
        </mxCell>
        <mxCell id="FinC79XKJ0Y0x9X4pj8Z-25" value="No" style="edgeLabel;html=1;align=center;verticalAlign=middle;resizable=0;points=[];" vertex="1" connectable="0" parent="FinC79XKJ0Y0x9X4pj8Z-24">
          <mxGeometry x="-0.2915" y="9" relative="1" as="geometry">
            <mxPoint as="offset" />
          </mxGeometry>
        </mxCell>
        <mxCell id="FinC79XKJ0Y0x9X4pj8Z-16" value="&#xa;&#xa;&lt;span style=&quot;color: rgb(0, 0, 0); font-family: helvetica; font-size: 12px; font-style: normal; font-weight: 400; letter-spacing: normal; text-align: center; text-indent: 0px; text-transform: none; word-spacing: 0px; background-color: rgb(248, 249, 250); display: inline; float: none;&quot;&gt;if array[i] &amp;gt;0&amp;nbsp;&lt;/span&gt;&lt;br style=&quot;color: rgb(0, 0, 0); font-family: helvetica; font-size: 12px; font-style: normal; font-weight: 400; letter-spacing: normal; text-align: center; text-indent: 0px; text-transform: none; word-spacing: 0px;&quot;&gt;&lt;span style=&quot;color: rgb(0, 0, 0); font-family: helvetica; font-size: 12px; font-style: normal; font-weight: 400; letter-spacing: normal; text-align: center; text-indent: 0px; text-transform: none; word-spacing: 0px; background-color: rgb(248, 249, 250); display: inline; float: none;&quot;&gt;not necessary, try to find sum == 0&lt;/span&gt;&#xa;&#xa;" style="rhombus;whiteSpace=wrap;html=1;" vertex="1" parent="1">
          <mxGeometry x="275" y="470" width="150" height="130" as="geometry" />
        </mxCell>
      </root>
    </mxGraphModel>
  </diagram>
</mxfile>
